<svg xmlns="http://www.w3.org/2000/svg" viewBox="0 0 64 64">
  <rect width="64" height="64" rx="14" fill="#f4f3ee"/>
  <path
    d="M49.5 12.5C34.8 13.4 20.2 20.2 15.2 33.4c-3.2 8.4 2.1 16.6 10.8 17.9 13.2 2 22.8-9.2 24.4-23.1.6-5.2.1-10.4-.9-15.7Z"
    fill="#4f8f48"
  />
  <path
    d="M18.3 46.2c6.4-9.6 15.1-16.9 26.8-23"
    fill="none"
    stroke="#f4f3ee"
    stroke-linecap="round"
    stroke-width="4"
  />
  <path
    d="M27.4 37.8c3.2.4 6.4.1 9.4-.9M34.1 31.8c2.5.2 5-.1 7.4-.9M24.6 41.8c-.2-3 .2-5.9 1.2-8.7M31.4 35.4c-.1-2.6.3-5.1 1.2-7.5"
    fill="none"
    stroke="#f4f3ee"
    stroke-linecap="round"
    stroke-width="2.4"
  />
</svg>
